<svg width="56.333496" height="37.000000" viewBox="0 0 56.3335 37" fill="none" xmlns="http://www.w3.org/2000/svg" xmlns:xlink="http://www.w3.org/1999/xlink">
	<desc>
			Created with Pixso.
	</desc>
	<defs>
		<filter id="filter_5_181_dd" x="0.000000" y="0.000000" width="56.333496" height="37.000000" filterUnits="userSpaceOnUse" color-interpolation-filters="sRGB">
			<feFlood flood-opacity="0" result="BackgroundImageFix"/>
			<feColorMatrix in="SourceAlpha" type="matrix" values="0 0 0 0 0 0 0 0 0 0 0 0 0 0 0 0 0 0 127 0" result="hardAlpha"/>
			<feOffset dx="0" dy="4"/>
			<feGaussianBlur stdDeviation="1.33333"/>
			<feComposite in2="hardAlpha" operator="out" k2="-1" k3="1"/>
			<feColorMatrix type="matrix" values="0 0 0 0 0 0 0 0 0 0 0 0 0 0 0 0 0 0 0.25 0"/>
			<feBlend mode="normal" in2="BackgroundImageFix" result="effect_dropShadow_1"/>
			<feBlend mode="normal" in="SourceGraphic" in2="effect_dropShadow_1" result="shape"/>
		</filter>
	</defs>
	<g filter="url(#filter_5_181_dd)">
		<path id="Vector" d="M52.33 14.5C52.33 22.45 45.86 29 37.83 29C29.87 29 23.33 22.45 23.33 14.5C23.33 6.54 29.8 0 37.75 0C45.86 0 52.33 6.54 52.33 14.5Z" fill="#808080" fill-opacity="1.000000" fill-rule="evenodd"/>
		<path id="Vector" d="M32.92 14.57C32.92 13.53 32.77 12.49 32.62 11.52L23.7 11.52C23.77 11 23.92 10.55 24.07 9.96L32.03 9.96C31.88 9.44 31.66 8.92 31.43 8.4L24.67 8.4C24.89 7.88 25.19 7.43 25.48 6.84L30.62 6.84C30.32 6.32 29.95 5.8 29.5 5.27L26.67 5.27C27.12 4.75 27.57 4.31 28.16 3.79C25.63 1.41 22.21 0 18.42 0C10.54 0.22 4 6.54 4 14.5C4 22.45 10.46 29 18.5 29C22.29 29 25.63 27.51 28.24 25.2C28.76 24.76 29.2 24.24 29.72 23.64L26.75 23.64C26.38 23.2 26.01 22.67 25.71 22.15L30.76 22.15C31.06 21.71 31.36 21.19 31.58 20.59L24.82 20.59C24.59 20.15 24.37 19.63 24.22 19.03L32.18 19.03C32.62 17.69 32.92 16.21 32.92 14.57Z" fill="#686868" fill-opacity="1.000000" fill-rule="evenodd"/>
		<path id="Vector" d="M23.63 18.21L23.85 16.87C23.78 16.87 23.63 16.95 23.48 16.95C22.96 16.95 22.88 16.65 22.96 16.5L23.41 13.83L24.22 13.83L24.45 12.34L23.7 12.34L23.85 11.45L22.29 11.45C22.29 11.45 21.4 16.5 21.4 17.1C21.4 17.99 21.92 18.44 22.66 18.44C23.11 18.44 23.48 18.29 23.63 18.21Z" fill="#FFFFFF" fill-opacity="1.000000" fill-rule="nonzero"/>
		<path id="Vector" d="M24.15 15.76C24.15 17.92 25.64 18.44 26.83 18.44C27.94 18.44 28.46 18.21 28.46 18.21L28.76 16.73C28.76 16.73 27.94 17.1 27.12 17.1C25.41 17.1 25.71 15.83 25.71 15.83L28.83 15.83C28.83 15.83 29.06 14.87 29.06 14.42C29.06 13.45 28.54 12.19 26.83 12.19C25.34 12.12 24.15 13.83 24.15 15.76ZM26.83 13.53C27.64 13.53 27.49 14.5 27.49 14.57L25.78 14.57C25.86 14.5 26.01 13.53 26.83 13.53Z" fill="#FFFFFF" fill-opacity="1.000000" fill-rule="nonzero"/>
		<path id="Vector" d="M36.56 18.21L36.86 16.5C36.86 16.5 36.12 16.87 35.52 16.87C34.48 16.87 33.96 16.06 33.96 15.09C33.96 13.23 34.85 12.26 35.97 12.26C36.71 12.26 37.38 12.71 37.38 12.71L37.61 11.07C37.61 11.07 36.71 10.7 35.82 10.7C34.04 10.7 32.33 12.26 32.33 15.16C32.33 17.1 33.22 18.36 35.08 18.36C35.75 18.44 36.56 18.21 36.56 18.21Z" fill="#FFFFFF" fill-opacity="1.000000" fill-rule="nonzero"/>
		<path id="Vector" d="M15.22 12.12C14.18 12.12 13.37 12.41 13.37 12.41L13.14 13.75C13.14 13.75 13.81 13.45 14.85 13.45C15.37 13.45 15.82 13.53 15.82 13.97C15.82 14.27 15.74 14.35 15.74 14.35L15.08 14.35C13.74 14.35 12.32 14.87 12.32 16.65C12.32 18.06 13.22 18.36 13.81 18.36C14.85 18.36 15.37 17.69 15.45 17.69L15.37 18.29L16.64 18.29L17.23 14.05C17.23 12.19 15.74 12.12 15.22 12.12ZM15.52 15.54C15.52 15.76 15.37 17.02 14.48 17.02C14.03 17.02 13.89 16.65 13.89 16.43C13.89 16.06 14.11 15.54 15.3 15.54C15.45 15.54 15.52 15.54 15.52 15.54Z" fill="#FFFFFF" fill-opacity="1.000000" fill-rule="nonzero"/>
		<path id="Vector" d="M18.72 18.36C19.09 18.36 21.02 18.44 21.02 16.35C21.02 14.42 19.17 14.79 19.17 14.05C19.17 13.68 19.46 13.53 19.98 13.53C20.21 13.53 21.02 13.6 21.02 13.6L21.25 12.19C21.25 12.19 20.73 12.04 19.76 12.04C18.65 12.04 17.46 12.49 17.46 14.05C17.46 15.83 19.39 15.68 19.39 16.35C19.39 16.8 18.87 16.87 18.5 16.87C17.83 16.87 17.08 16.65 17.08 16.65L16.86 18.06C17.01 18.21 17.46 18.36 18.72 18.36Z" fill="#FFFFFF" fill-opacity="1.000000" fill-rule="nonzero"/>
		<path id="Vector" d="M49.35 10.93L49.05 13.01C49.05 13.01 48.46 12.26 47.57 12.26C46.15 12.26 44.96 13.97 44.96 15.98C44.96 17.25 45.56 18.51 46.9 18.51C47.79 18.51 48.39 17.92 48.39 17.92L48.31 18.44L49.87 18.44L50.99 11.07L49.35 10.93ZM48.61 14.94C48.61 15.76 48.24 16.87 47.34 16.87C46.82 16.87 46.53 16.43 46.53 15.61C46.53 14.35 47.05 13.6 47.79 13.6C48.31 13.68 48.61 14.05 48.61 14.94Z" fill="#FFFFFF" fill-opacity="1.000000" fill-rule="nonzero"/>
		<path id="Vector" d="M6.82 18.29L7.71 12.78L7.86 18.29L8.9 18.29L10.91 12.78L10.09 18.29L11.73 18.29L12.99 10.93L10.46 10.93L8.9 15.46L8.83 10.93L6.6 10.93L5.33 18.29L6.82 18.29Z" fill="#FFFFFF" fill-opacity="1.000000" fill-rule="nonzero"/>
		<path id="Vector" d="M30.62 18.29C31.06 15.76 31.14 13.68 32.25 14.05C32.4 13.08 32.62 12.64 32.77 12.26L32.48 12.26C31.81 12.26 31.21 13.16 31.21 13.16L31.36 12.34L29.87 12.34L28.91 18.29L30.62 18.29Z" fill="#FFFFFF" fill-opacity="1.000000" fill-rule="nonzero"/>
		<path id="Vector" d="M40.14 12.12C39.09 12.12 38.28 12.41 38.28 12.41L38.05 13.75C38.05 13.75 38.72 13.45 39.76 13.45C40.28 13.45 40.73 13.53 40.73 13.97C40.73 14.27 40.66 14.35 40.66 14.35L39.99 14.35C38.65 14.35 37.24 14.87 37.24 16.65C37.24 18.06 38.13 18.36 38.72 18.36C39.76 18.36 40.28 17.69 40.36 17.69L40.28 18.29L41.7 18.29L42.29 14.05C42.29 12.19 40.66 12.12 40.14 12.12ZM40.51 15.54C40.51 15.76 40.36 17.02 39.47 17.02C39.02 17.02 38.87 16.65 38.87 16.43C38.87 16.06 39.09 15.54 40.28 15.54C40.43 15.54 40.43 15.54 40.51 15.54Z" fill="#FFFFFF" fill-opacity="1.000000" fill-rule="nonzero"/>
		<path id="Vector" d="M43.48 18.29C43.93 15.76 44 13.68 45.12 14.05C45.27 13.08 45.49 12.64 45.64 12.26L45.34 12.26C44.67 12.26 44.08 13.16 44.08 13.16L44.23 12.34L42.74 12.34L41.77 18.29L43.48 18.29Z" fill="#FFFFFF" fill-opacity="1.000000" fill-rule="nonzero"/>
	</g>
</svg>
